<svg xmlns="http://www.w3.org/2000/svg" viewBox="0 0 320 80" fill="none">
  <defs>
    <linearGradient id="lkGrad" x1="0" y1="0" x2="60" y2="80" gradientUnits="userSpaceOnUse">
      <stop offset="0" stop-color="#2A3340"></stop>
      <stop offset="1" stop-color="#15171A"></stop>
    </linearGradient>
  </defs>
  <g transform="translate(0,8)">
    <path d="M14 4 H53 a4 4 0 0 1 4 4 v3.5 a4 4 0 0 1 -4 4 H24 v15.5 H40.5 c12.6 0 22 8.6 22 21 s-9.4 21 -22 21 H18 a4 4 0 0 1 -4 -4 V4 z M24 41.5 v18 H40.5 c6.7 0 10.6 -3.6 10.6 -9 s-3.9 -9 -10.6 -9 H24 z" fill="url(#lkGrad)"></path>
  </g>
  <text x="80" y="52" font-family="Fraunces, Georgia, serif" font-weight="500" font-size="34" letter-spacing="-0.6" fill="#15171A" font-variation-settings="&#39;opsz&#39; 144,&#39;SOFT&#39; 100">Беловик</text>
</svg>