<?xml version="1.0" encoding="UTF-8"?>
<svg xmlns="http://www.w3.org/2000/svg" viewBox="0 0 798 842" fill="currentColor" fill-rule="nonzero">
  <g transform="translate(28,802) scale(1,-1)"><path fill="#F5F6F8" d="M313 762H336V0H313Q176 0 96.0 114.0Q16 228 12 366Q12 369 12.0 372.5Q12 376 12 380Q12 385 12.0 390.0Q12 395 12 400Q18 535 97.5 648.0Q177 761 313 761ZM432 762Q567 761 645.5 648.0Q724 535 730 400Q730 395 730.0 390.0Q730 385 730 380Q730 376 730.0 372.5Q730 369 730 366Q726 228 647.5 114.0Q569 0 432 0H406V762H432Z"/></g>
</svg>
