<?xml version="1.0" encoding="UTF-8"?>
<svg xmlns="http://www.w3.org/2000/svg" viewBox="0 0 4238 842" fill="currentColor" fill-rule="nonzero">
  <g transform="translate(40,802) scale(1,-1)"><path fill="#F22A37" d="M340 238H256L322 0H0L160 611L238 305H322L203 762H465L666 0H404L340 238Z" transform="translate(0,0)"/>
    <path fill="#F5F6F8" d="M23 0V762H285V0H23ZM322 762H559V428L322 762Z" transform="translate(689,0)"/>
    <path fill="#F5F6F8" d="M313 762H336V0H313Q176 0 96.0 114.0Q16 228 12 366Q12 369 12.0 372.5Q12 376 12 380Q12 385 12.0 390.0Q12 395 12 400Q18 535 97.5 648.0Q177 761 313 761ZM432 762Q567 761 645.5 648.0Q724 535 730 400Q730 395 730.0 390.0Q730 385 730 380Q730 376 730.0 372.5Q730 369 730 366Q726 228 647.5 114.0Q569 0 432 0H406V762H432Z" transform="translate(1296,0)"/>
    <path fill="#F5F6F8" d="M0 0 238 762H443L471 651L262 0H0ZM682 0H334L508 557L682 0Z" transform="translate(2052,0)"/>
    <path fill="#F5F6F8" d="M313 762H336V0H313Q176 0 96.0 114.0Q16 228 12 366Q12 369 12.0 372.5Q12 376 12 380Q12 385 12.0 390.0Q12 395 12 400Q18 535 97.5 648.0Q177 761 313 761ZM432 762Q567 761 645.5 648.0Q724 535 730 400Q730 395 730.0 390.0Q730 385 730 380Q730 376 730.0 372.5Q730 369 730 366Q726 228 647.5 114.0Q569 0 432 0H406V762H432Z" transform="translate(2757,0)"/>
    <path fill="#F5F6F8" d="M313 762H336V0H313Q176 0 96.0 114.0Q16 228 12 366Q12 369 12.0 372.5Q12 376 12 380Q12 385 12.0 390.0Q12 395 12 400Q18 535 97.5 648.0Q177 761 313 761ZM371 0 598 262V0H371ZM371 762H598V500L371 762Z" transform="translate(3513,0)"/></g>
</svg>
